PathFileType	4	(X/Y/Z)	C:/Users/beibeiliu/ov580/test_trc/User3\sequence.34_training_dense_left.trc
DataRate	CameraRate	NumFrames	NumMarkers	Units	OrigDataRate	OrigDataStartFrame	OrigNumFrames
120	120	19	19	mm	120	1	126
Frame#	Time	ThumbCMC			ThumbMCP			ThumbIP			ThumbTip			IndexMCP			IndexPIP			IndexTip			MiddleMCP			MiddlePIP			MiddleTip			RingMCP			RingPIP			RingTip			PinkyMCP			PinkyPIP			PinkyTip			BackHand1			BackHand2			BackHand3	
		X0	Y0	Z0	X1	Y1	Z1	X2	Y2	Z2	X3	Y3	Z3	X4	Y4	Z4	X5	Y5	Z5	X6	Y6	Z6	X7	Y7	Z7	X8	Y8	Z8	X9	Y9	Z9	X10	Y10	Z10	X11	Y11	Z11	X12	Y12	Z12	X13	Y13	Z13	X14	Y14	Z14	X15	Y15	Z15	X16	Y16	Z16	X17	Y17	Z17	X18	Y18	Z18	
0	0	-235.925	-107.23	33.2173	-249.396	-112.354	9.18284	-266.368	-121.464	-14.5953	-277.336	-126.657	-35.9988	-213.457	-118.956	-44.325	-217.867	-102.227	-64.9778	-218.79	-79.8305	-87.1936	-192.025	-118.337	-48.825	-192.078	-102.256	-72.7879	-193.008	-78.0753	-95.18	-172.838	-119.576	-43.1428	-168.817	-115.208	-62.7138	-163.609	-106.815	-87.9546	-149.945	-117.624	-21.8607	-142.432	-120.399	-36.9875	-133.93	-129.874	-57.1652	-175.335	-130.522	12.8246	-175.671	-122.625	47.2095	-207.344	-130.207	27.2445	
1	0.00833333	-232.104	-101.157	30.4153	-247.501	-107.373	7.59509	-258.637	-113.764	-16.6333	-273.663	-118.864	-37.4691	-210.928	-111.786	-46.2347	-213.891	-93.4245	-69.1772	-214.687	-71.388	-87.3502	-190.932	-110.435	-51.724	-191.421	-96.7274	-71.3578	-191.137	-70.33	-95.1694	-166.52	-112.686	-41.3107	-167.844	-107.522	-63.5964	-161.664	-98.7115	-93.3358	-151.353	-109.547	-19.558	-138.573	-115.602	-41.6682	-129.873	-123.138	-54.9284	-171.48	-122.288	15.6427	-174.506	-118.913	44.1695	-206.169	-123.929	24.5016	
2	0.0166667	-230.702	-94.9433	32.0287	-244.158	-99.983	9.59088	-260.646	-109.518	-19.2502	-269.659	-110.67	-34.5321	-214.112	-103.644	-49.3699	-212.231	-88.3431	-66.9809	-217.098	-68.1231	-84.7537	-187.222	-105.821	-48.726	-189.77	-88.9674	-71.5428	-192.673	-65.3262	-93.6733	-170.341	-107.719	-39.8378	-165.78	-99.4817	-67.5502	-159.569	-91.3986	-91.5991	-148.082	-105.38	-20.2037	-137.653	-108.291	-39.7897	-129.809	-115.227	-56.6324	-169.424	-118.284	15.1298	-173.898	-113.115	43.3979	-203.534	-118.076	27.0501	
3	0.025	-232.534	-93.8622	28.1347	-242.491	-97.1725	6.85899	-257.828	-104.171	-17.7216	-269.503	-105.667	-33.2473	-210.601	-99.7544	-48.1702	-215.033	-82.0853	-69.6819	-210.365	-64.5035	-82.8112	-188.694	-103.064	-47.2701	-188.048	-84.0594	-72.8899	-188.185	-60.182	-93.105	-169.488	-104.428	-41.9624	-163.651	-97.0606	-65.6491	-160.599	-90.3667	-86.7793	-152.003	-101.699	-19.3398	-140.994	-107.119	-39.2358	-128.451	-114.347	-54.6273	-170.67	-114.936	12.3242	-169.72	-110.651	43.0876	-204.464	-115.869	24.3572	
4	0.0333333	-227.241	-87.3545	32.0176	-242.312	-94.2907	5.77124	-258.554	-99.6175	-16.5447	-269.683	-102.196	-34.9878	-211.979	-97.6319	-45.5709	-211.703	-81.2335	-65.2609	-212.299	-60.9055	-83.1474	-188.856	-97.8578	-52.3508	-188.553	-78.7415	-73.7942	-187.816	-58.3414	-92.1486	-163.241	-100.239	-39.5778	-162.364	-94.8945	-66.4484	-155.446	-85.9125	-89.9426	-144.416	-99.3567	-19.6029	-140.483	-103.597	-37.8128	-126.129	-111.456	-54.6077	-168.924	-113.505	13.9972	-174.345	-109.176	42.0331	-202.773	-111.312	24.5604	
5	0.0416667	-223.374	-83.3837	27.2349	-237.03	-87.8263	5.28244	-250.679	-94.2664	-21.8158	-264.498	-95.1356	-38.4234	-207.919	-91.6885	-45.5046	-202.351	-71.6703	-68.1809	-204.65	-53.5684	-83.0466	-179.937	-91.3092	-50.8365	-181.881	-74.8434	-72.0033	-177.656	-50.6456	-91.7611	-157.843	-95.6667	-39.6283	-153.812	-89.2265	-65.4672	-148.081	-81.4918	-86.4197	-142.168	-96.3933	-19.3059	-135.725	-98.5599	-35.8872	-120.81	-104.462	-54.6123	-169.267	-108.488	16.5737	-169.214	-104.032	43.7035	-202.933	-106.002	24.557	
6	0.05	-219.894	-75.9083	24.4192	-232.244	-79.3068	0.538211	-241.867	-81.1245	-22.858	-252.831	-84.1915	-42.5629	-194.812	-81.8779	-51.4597	-196.802	-65.9234	-67.862	-190.898	-45.0793	-84.5199	-170.662	-84.0349	-52.3564	-172.481	-68.5157	-70.9798	-167.472	-41.8365	-93.9539	-155.017	-90.6617	-38.8882	-146.468	-83.4659	-62.8834	-140.454	-75.3502	-90.5817	-132.832	-91.5211	-18.7662	-123.611	-95.6947	-39.479	-112.374	-101.646	-54.9145	-165.3	-101.176	15.2028	-164.083	-99.1627	44.499	-195.289	-100.799	24.1144	
7	0.0583333	-212.335	-65.4992	25.7215	-221.651	-67.0596	-0.877206	-233.624	-72.5556	-30.6191	-243.464	-71.4778	-47.539	-183.851	-74.6678	-52.557	-180.972	-53.7379	-72.5035	-172.347	-36.3761	-85.0085	-160.238	-77.1472	-52.2059	-156.517	-60.4366	-70.5503	-151.908	-31.3888	-93.7054	-143.824	-85.171	-39.0877	-130.967	-77.5865	-60.5311	-123.53	-69.4897	-83.3488	-123.045	-90.0438	-18.1637	-115.452	-91.5908	-33.4524	-100.73	-99.7188	-53.7419	-153.646	-97.4967	16.601	-159.342	-95.2506	42.7966	-192.079	-94.3462	20.6489	
8	0.0666667	-202.483	-58.8301	23.0951	-209.526	-60.1907	-3.84194	-216.932	-62.3989	-30.0742	-226.776	-63.2931	-53.2028	-171.487	-69.7993	-48.3816	-163.189	-48.1663	-70.0847	-156.674	-24.9246	-83.4434	-148.557	-75.1279	-45.8386	-136.841	-54.8076	-67.6721	-130.453	-29.912	-85.6195	-129.771	-82.8989	-34.8228	-118.005	-76.4247	-54.3177	-109.495	-66.6319	-79.966	-114.872	-87.3126	-7.34332	-105.295	-91.0789	-25.125	-89.3244	-99.8535	-43.0352	-149.041	-94.0076	18.0891	-154.617	-91.3604	49.2106	-183.239	-86.6978	22.9314	
9	0.075	-192.873	-56.7678	29.977	-204.33	-57.668	0.409048	-211.764	-59.422	-25.0967	-212.693	-58.5523	-46.6132	-160.241	-66.0753	-43.0355	-150.259	-49.9466	-59.5516	-140.944	-27.3333	-74.9559	-137.623	-72.2719	-41.0463	-128.853	-54.356	-60.2339	-118.014	-29.1613	-76.689	-121.852	-81.5246	-29.0838	-106.49	-76.7399	-44.1818	-95.8925	-66.6324	-68.7334	-110.01	-84.7923	-0.340415	-93.2241	-90.7965	-17.7981	-80.8241	-97.6146	-33.7666	-138.821	-93.511	26.6465	-147.342	-91.5092	52.0237	-176.565	-85.0796	28.7384	
10	0.0833333	-187.107	-56.6276	33.5376	-194.782	-56.8528	7.36681	-201.064	-58.7664	-21.2901	-207.267	-58.6909	-43.205	-148.54	-63.0347	-36.381	-143.507	-45.0345	-53.9965	-131.175	-22.606	-68.7644	-126.954	-68.5035	-35.3793	-119.891	-51.5072	-52.3722	-106.506	-26.608	-68.928	-107.935	-78.0454	-17.9087	-98.0889	-72.8303	-37.9466	-87.0216	-63.9088	-63.7904	-101.197	-80.938	6.21602	-85.6353	-87.4576	-10.3561	-72.1077	-93.5298	-26.0319	-130.523	-90.1739	33.2846	-139.149	-87.522	57.0732	-166.12	-84.4844	34.3252	
11	0.0916667	-179.976	-51.3077	39.4826	-193.332	-52.8408	11.0695	-198.952	-55.4371	-17.321	-200.042	-54.9477	-38.0868	-145.087	-57.8698	-34.4417	-138.356	-38.5112	-52.627	-129.371	-20.3524	-64.3126	-123.396	-64.6678	-30.3188	-112.916	-45.6496	-50.9825	-103.564	-17.9286	-69.5473	-105.077	-72.5633	-14.0371	-96.4785	-66.5818	-36.1831	-81.9407	-59.1052	-57.4757	-95.2852	-77.3138	4.53947	-83.062	-79.8631	-7.00548	-64.1886	-88.2695	-23.4758	-124.834	-86.6066	34.1439	-132.284	-83.8464	62.5101	-162.472	-78.2028	34.3109	
12	0.1	-177.858	-48.9509	34.7216	-186.188	-47.3285	9.54243	-198.498	-49.015	-18.8096	-203.619	-49.2923	-39.3398	-144.522	-51.0486	-36.9995	-140.011	-32.3273	-54.2332	-131.028	-13.5601	-65.3536	-123.539	-56.8692	-33.987	-112.515	-37.3387	-53.376	-103.847	-13.7252	-68.5715	-102.128	-66.7319	-16.655	-95.3165	-59.7305	-41.4863	-81.5211	-51.0218	-61.3528	-92.3151	-68.5631	8.3812	-80.2896	-72.6176	-7.12448	-64.0629	-81.5649	-26.7106	-126.485	-78.0093	29.4756	-133.918	-76.8994	61.8751	-159.795	-72.745	35.6249	
13	0.108333	-182.005	-40.6995	33.6776	-191.82	-42.0143	4.13848	-199.239	-44.1301	-24.0066	-204.293	-42.3336	-44.7953	-143.104	-47.1025	-36.7413	-138.996	-28.4242	-55.5144	-129.768	-3.07634	-69.8456	-122.253	-49.8633	-38.6008	-115.333	-30.1045	-56.836	-107.432	-5.76873	-71.6375	-105.188	-59.5154	-23.3703	-96.0825	-53.2732	-41.0319	-84.3813	-43.864	-63.8595	-94.8495	-64.4396	-0.271606	-78.2768	-67.6143	-15.2748	-66.699	-73.9001	-31.2911	-126.765	-71.9002	26.0053	-134.847	-73.3173	55.5795	-162.228	-69.181	33.5444	
14	0.116667	-185.06	-37.1328	29.2935	-192.965	-35.6851	3.84914	-200.817	-36.6371	-25.6518	-203.006	-35.7445	-46.9378	-142.675	-39.7816	-42.1171	-137.324	-21.1658	-58.4776	-130.215	2.97477	-71.0498	-125.684	-45.0789	-39.2959	-117.655	-24.6574	-58.8161	-105.336	5.26395	-75.3781	-107.246	-53.5008	-26.0649	-96.2992	-46.6037	-46.2741	-86.7884	-37.2159	-66.5735	-92.1643	-58.9378	-1.67615	-81.3653	-61.1759	-14.2568	-64.845	-69.5143	-34.4082	-125.7	-68.5618	26.5633	-136.425	-66.0135	51.1083	-161.451	-64.01	27.6306	
15	0.125	-184.622	-33.773	26.3225	-191.116	-33.3779	-1.48662	-199.355	-35.4046	-32.239	-204.303	-30.4967	-48.7861	-145.442	-37.0405	-44.0745	-140.432	-16.5371	-62.0216	-126.994	7.94318	-73.9903	-122.822	-42.9373	-39.8849	-116.865	-19.2167	-62.6074	-107.192	5.57939	-76.1007	-106.468	-51.0072	-26.2381	-97.9982	-42.9088	-46.9388	-84.1255	-33.8668	-68.2735	-92.2938	-55.8891	-2.50342	-82.5086	-58.306	-18.706	-68.2453	-65.9869	-36.7028	-127.376	-64.9304	20.495	-136.966	-64.4512	49.562	-163.345	-62.8066	21.9392	
16	0.133333	-184.261	-33.7199	26.2927	-190.828	-34.2026	-5.49413	-196.574	-33.9041	-30.8619	-202.081	-33.2959	-54.0204	-143.85	-38.1639	-43.5382	-134.411	-14.7621	-62.4524	-127.021	6.03487	-74.1242	-120.315	-42.9392	-38.8685	-111.428	-21.3886	-60.6	-103.507	4.76324	-75.8756	-107.156	-49.4895	-29.4168	-92.9304	-43.1859	-49.0199	-80.2031	-33.9484	-72.5531	-91.8092	-55.6695	-4.93688	-80.7266	-58.6336	-18.4446	-66.853	-64.8576	-35.3117	-127.033	-65.2702	23.891	-136.39	-65.9878	46.6905	-160.031	-62.661	21.0062	
17	0.141667	-183.507	-35.7655	23.7943	-188.697	-33.7743	-1.12037	-195.323	-34.5923	-29.9804	-201.58	-33.7068	-52.6567	-145.487	-39.5189	-44.6112	-133.091	-17.0491	-63.0405	-126.144	3.58213	-74.2794	-118.548	-43.135	-43.5481	-112.439	-24.2525	-61.3079	-99.212	5.40353	-77.947	-102.514	-53.4706	-28.7515	-92.0578	-47.8112	-46.9764	-83.0877	-36.6236	-72.719	-93.4698	-57.3803	-3.2128	-77.0845	-62.5903	-19.4998	-66.058	-67.6371	-32.953	-126.704	-67.7389	20.4041	-132.851	-67.3472	47.1873	-157.918	-63.6423	23.0568	
18	0.15	-182.252	-36.8256	23.2723	-186.344	-34.8526	0.290799	-195.18	-36.6248	-32.938	-196.597	-35.0833	-51.6707	-143.287	-40.2292	-42.7064	-134.975	-19.3556	-62.738	-123.122	2.50842	-73.7279	-119.767	-46.1857	-41.4057	-107.251	-23.5507	-62.3306	-99.59	-0.417065	-75.3774	-103.09	-55.191	-26.5354	-89.1635	-48.7793	-48.3755	-78.687	-38.842	-73.6074	-91.3137	-57.8673	-2.44159	-78.3676	-63.4181	-20.8273	-67.3967	-69.7964	-33.5324	-126.946	-67.3523	22.3623	-132.971	-68.8802	50.6588	-156.241	-61.959	24.8714	
